<?xml version="1.0" encoding="UTF-8" standalone="no"?>
<!-- Created with Inkscape (http://www.inkscape.org/) -->

<svg
   xmlns:dc="http://purl.org/dc/elements/1.1/"
   xmlns:cc="http://creativecommons.org/ns#"
   xmlns:rdf="http://www.w3.org/1999/02/22-rdf-syntax-ns#"
   xmlns:svg="http://www.w3.org/2000/svg"
   xmlns="http://www.w3.org/2000/svg"
   xmlns:sodipodi="http://sodipodi.sourceforge.net/DTD/sodipodi-0.dtd"
   xmlns:inkscape="http://www.inkscape.org/namespaces/inkscape"
   width="330mm"
   height="130mm"
   viewBox="0 0 1169.2914 460.62991"
   id="svg4176"
   version="1.1"
   inkscape:version="0.91 r13725"
   sodipodi:docname="full-logo.svg"
   inkscape:export-filename="C:\git\nedelman\finjin-exporter\common\assets\images\FullLogo.png"
   inkscape:export-xdpi="26.940001"
   inkscape:export-ydpi="26.940001">
  <defs
     id="defs4178" />
  <sodipodi:namedview
     id="base"
     pagecolor="#ffffff"
     bordercolor="#666666"
     borderopacity="1.0"
     inkscape:pageopacity="0.0"
     inkscape:pageshadow="2"
     inkscape:zoom="0.35"
     inkscape:cx="1530.4499"
     inkscape:cy="62.857143"
     inkscape:document-units="px"
     inkscape:current-layer="layer1"
     showgrid="false"
     inkscape:window-width="2133"
     inkscape:window-height="1137"
     inkscape:window-x="-8"
     inkscape:window-y="-8"
     inkscape:window-maximized="1" />
  <metadata
     id="metadata4181">
    <rdf:RDF>
      <cc:Work
         rdf:about="">
        <dc:format>image/svg+xml</dc:format>
        <dc:type
           rdf:resource="http://purl.org/dc/dcmitype/StillImage" />
        <dc:title></dc:title>
      </cc:Work>
    </rdf:RDF>
  </metadata>
  <g
     inkscape:label="Layer 1"
     inkscape:groupmode="layer"
     id="layer1"
     transform="translate(0,-591.73226)">
    <path
       style="fill:none;fill-opacity:1;stroke:none"
       d="m 171.54633,807.90943 c -17.66208,-17.76642 -33.34099,-39.35364 -37.74048,-64.66723 -3.10692,-16.11916 3.23361,-32.1238 11.71626,-45.49132 9.68277,-14.90579 21.62138,-29.4683 37.82491,-37.32988 9.78953,-4.97248 22.31064,-4.16479 30.64208,3.34849 13.50799,10.56861 18.18249,28.71409 16.94003,45.27817 -2.04943,28.25271 -13.63869,54.66484 -25.8953,79.76212 -5.09833,9.55897 -9.4001,19.76447 -16.29797,28.18518 -5.65351,5.57282 -10.91567,-4.36761 -15.44836,-7.38094 -0.58424,-0.56417 -1.16463,-1.13241 -1.74118,-1.70459 z"
       id="path3394"
       inkscape:connector-curvature="0"
       inkscape:export-xdpi="90"
       inkscape:export-ydpi="90"
       inkscape:export-filename="C:\Users\Derek\Documents\Visual Studio 2015\Projects\png2ico\x64\Debug\path3394.png" />
    <path
       style="fill:none;fill-opacity:1"
       d="m 86.15457,918.35789 c -22.65048,-2.4009 -41.943174,-11.36457 -49.142803,-22.83247 -3.05207,-4.86149 -3.843029,-7.69781 -3.843029,-13.781 0,-12.48832 3.290944,-19.87028 13.366537,-29.98271 C 66.08979,832.13569 99.7229,822.67324 156.15996,820.91953 l 26.62547,-0.82736 -0.82517,4.63009 c -8.02127,45.00733 -27.83001,78.26882 -53.42342,89.70493 -3.43764,1.53607 -10.68445,3.37451 -16.10403,4.08541 -11.08624,1.4542 -11.10024,1.45413 -26.27824,-0.15471 z"
       id="path3396"
       inkscape:connector-curvature="0"
       inkscape:export-xdpi="90"
       inkscape:export-ydpi="90"
       inkscape:export-filename="C:\Users\Derek\Documents\Visual Studio 2015\Projects\png2ico\x64\Debug\path3394.png" />
    <path
       style="fill:none;fill-opacity:1;stroke:none;stroke-width:1;stroke-miterlimit:4;stroke-dasharray:none"
       d="m 279.13724,924.8681 c -21.05197,-7.55598 -37.48791,-23.93737 -51.7947,-40.68747 -14.48985,-17.5082 -27.00038,-36.6887 -37.58489,-56.83436 -3.569,-7.33362 6.43458,-10.30453 11.58037,-11.76071 19.02712,-6.07344 39.218,-8.73111 59.09292,-6.26526 16.52153,1.54552 32.79678,9.12827 42.96135,22.67828 10.25851,13.63258 17.55602,29.58977 21.56757,46.21706 3.11245,13.42061 2.86748,29.84213 -7.8407,39.88996 -8.61068,8.36571 -21.53775,8.78176 -32.75194,7.8753 -1.7686,-0.22553 -3.53349,-0.54948 -5.22998,-1.1128 z"
       id="path3398"
       inkscape:connector-curvature="0"
       inkscape:export-xdpi="90"
       inkscape:export-ydpi="90"
       inkscape:export-filename="C:\Users\Derek\Documents\Visual Studio 2015\Projects\png2ico\x64\Debug\path3394.png" />
    <path
       style="fill:none;fill-opacity:1;stroke:none;stroke-opacity:1"
       d="m 81.46058,917.13478 c -14.64029,-2.72319 -29.960191,-7.31477 -40.823611,-18.1362 -8.448794,-8.81171 -7.782591,-22.91275 -3.318439,-33.50239 7.736409,-15.34258 23.353947,-24.64129 38.59717,-31.00198 21.89438,-8.74799 45.69202,-10.36104 68.91647,-12.33182 10.89634,-0.53799 21.82357,-1.54248 32.73011,-1.196 7.27229,1.79099 1.63114,10.75712 1.08135,15.72428 -6.07086,24.28288 -16.19847,48.5227 -34.26086,66.22253 -7.9138,8.08266 -18.61533,12.63753 -29.65107,14.16927 -10.98846,1.7564 -22.28261,1.86603 -33.27112,0.0524 z"
       id="path3400"
       inkscape:connector-curvature="0"
       inkscape:export-xdpi="90"
       inkscape:export-ydpi="90"
       inkscape:export-filename="C:\Users\Derek\Documents\Visual Studio 2015\Projects\png2ico\x64\Debug\path3394.png" />
    <ellipse
       style="fill:none;fill-opacity:1;stroke:#0069cd;stroke-width:7.56601477;stroke-miterlimit:4;stroke-dasharray:none;stroke-opacity:1"
       id="path4213"
       cx="629.07489"
       cy="-657.96619"
       rx="21.417913"
       ry="69.470924"
       transform="matrix(-0.5,0.8660254,-0.8660254,-0.5,0,0)"
       inkscape:export-filename="C:\Users\Derek\Documents\Visual Studio 2015\Projects\png2ico\x64\Debug\path3394.png"
       inkscape:export-xdpi="90"
       inkscape:export-ydpi="90" />
    <ellipse
       style="fill:none;fill-opacity:1;stroke:#0069cd;stroke-width:7.56601477;stroke-miterlimit:4;stroke-dasharray:none;stroke-opacity:1"
       id="path4213-3"
       cx="176.48891"
       cy="720.01434"
       rx="21.417913"
       ry="69.470924"
       inkscape:export-filename="C:\Users\Derek\Documents\Visual Studio 2015\Projects\png2ico\x64\Debug\path3394.png"
       inkscape:export-xdpi="90"
       inkscape:export-ydpi="90" />
    <ellipse
       style="fill:none;fill-opacity:1;stroke:#0069cd;stroke-width:7.56601477;stroke-miterlimit:4;stroke-dasharray:none;stroke-opacity:1"
       id="path4213-7"
       cx="808.56091"
       cy="-348.17398"
       rx="21.417913"
       ry="69.470924"
       transform="matrix(0.5,0.8660254,0.8660254,-0.5,0,0)"
       inkscape:export-filename="C:\Users\Derek\Documents\Visual Studio 2015\Projects\png2ico\x64\Debug\path3394.png"
       inkscape:export-xdpi="90"
       inkscape:export-ydpi="90" />
    <circle
       style="fill:none;fill-opacity:1;stroke:#0069cd;stroke-width:7.56601477;stroke-miterlimit:4;stroke-dasharray:none;stroke-opacity:1"
       id="path4245"
       cx="178.96022"
       cy="816.12628"
       inkscape:export-filename="C:\Users\Derek\Documents\Visual Studio 2015\Projects\png2ico\x64\Debug\path3394.png"
       inkscape:export-xdpi="90"
       inkscape:export-ydpi="90"
       r="15.651552" />
    <text
       xml:space="preserve"
       style="font-style:normal;font-variant:normal;font-weight:300;font-stretch:normal;font-size:356.36248779px;line-height:20000%;font-family:'Microsoft YaHei';-inkscape-font-specification:'Microsoft YaHei, Light';text-align:start;letter-spacing:0px;word-spacing:0px;writing-mode:lr-tb;text-anchor:start;fill:#808080;fill-opacity:1;stroke:none;stroke-width:1px;stroke-linecap:butt;stroke-linejoin:miter;stroke-opacity:1;"
       x="343.0484"
       y="929.00085"
       id="text4204"
       sodipodi:linespacing="20000%"><tspan
         sodipodi:role="line"
         id="tspan4206"
         x="343.0484"
         y="929.00085"
         style="font-style:normal;font-variant:normal;font-weight:300;font-stretch:normal;font-size:356.36248779px;line-height:20000%;font-family:'Microsoft YaHei';-inkscape-font-specification:'Microsoft YaHei, Light';text-align:start;writing-mode:lr-tb;text-anchor:start;fill:#808080;">finjin</tspan></text>
  </g>
</svg>
