<?xml version="1.0" encoding="UTF-8" standalone="no"?>
<!-- Created with Inkscape (http://www.inkscape.org/) -->

<svg
   xmlns:dc="http://purl.org/dc/elements/1.1/"
   xmlns:cc="http://creativecommons.org/ns#"
   xmlns:rdf="http://www.w3.org/1999/02/22-rdf-syntax-ns#"
   xmlns:svg="http://www.w3.org/2000/svg"
   xmlns="http://www.w3.org/2000/svg"
   xmlns:sodipodi="http://sodipodi.sourceforge.net/DTD/sodipodi-0.dtd"
   xmlns:inkscape="http://www.inkscape.org/namespaces/inkscape"
   id="svg3348"
   version="1.1"
   inkscape:version="0.91 r13725"
   width="390"
   height="390"
   viewBox="0 0 390 390"
   sodipodi:docname="logo.svg"
   inkscape:export-filename="C:\Users\Derek\Documents\Visual Studio 2015\Projects\png2ico\x64\Debug\application-32x32.png"
   inkscape:export-xdpi="7.3800001"
   inkscape:export-ydpi="7.3800001">
  <metadata
     id="metadata3354">
    <rdf:RDF>
      <cc:Work
         rdf:about="">
        <dc:format>image/svg+xml</dc:format>
        <dc:type
           rdf:resource="http://purl.org/dc/dcmitype/StillImage" />
        <dc:title />
      </cc:Work>
    </rdf:RDF>
  </metadata>
  <defs
     id="defs3352">
    <inkscape:path-effect
       effect="bend_path"
       id="path-effect4207"
       is_visible="true"
       bendpath="m -7.0586227,127.24322 53.5128607,0"
       prop_scale="100"
       scale_y_rel="false"
       vertical="false" />
  </defs>
  <sodipodi:namedview
     pagecolor="#ffffff"
     bordercolor="#666666"
     borderopacity="1"
     objecttolerance="10"
     gridtolerance="10"
     guidetolerance="10"
     inkscape:pageopacity="0"
     inkscape:pageshadow="2"
     inkscape:window-width="1161"
     inkscape:window-height="852"
     id="namedview3350"
     showgrid="false"
     inkscape:zoom="1.3776999"
     inkscape:cx="95.209002"
     inkscape:cy="226.50728"
     inkscape:window-x="210"
     inkscape:window-y="155"
     inkscape:window-maximized="1"
     inkscape:current-layer="svg3348" />
  <path
     style="fill:none;fill-opacity:1;stroke:none"
     d="m 187.46187,228.1871 c -23.34397,-23.48188 -44.06677,-52.01371 -49.88156,-85.47067 -4.10641,-21.3047 4.27387,-42.45804 15.48537,-60.125872 12.79772,-19.700987 28.57697,-38.948239 49.99318,-49.338894 12.93881,-6.572133 29.48796,-5.504595 40.49963,4.425691 17.8535,13.968531 24.03178,37.951409 22.38963,59.844148 -2.70873,37.341607 -18.02626,72.250517 -34.22581,105.421587 -6.73846,12.63409 -12.42412,26.12269 -21.54103,37.25235 -7.47224,7.3656 -14.42723,-5.77267 -20.4181,-9.75538 -0.77218,-0.74567 -1.53929,-1.49671 -2.30131,-2.25296 z"
     id="path3394"
     inkscape:connector-curvature="0"
     inkscape:export-xdpi="90"
     inkscape:export-ydpi="90"
     inkscape:export-filename="C:\Users\Derek\Documents\Visual Studio 2015\Projects\png2ico\x64\Debug\path3394.png" />
  <path
     style="fill:none;fill-opacity:1"
     d="M 74.599611,374.1668 C 44.662474,370.99354 19.163318,359.14626 9.647566,343.98914 5.613647,337.56371 4.568245,333.81494 4.568245,325.77479 c 0,-16.50581 4.349637,-26.26255 17.666541,-39.62815 25.845213,-25.9397 70.298074,-38.44622 144.890924,-40.7641 l 35.19089,-1.09352 -1.09064,6.1196 c -10.60171,59.48617 -36.78292,103.44787 -70.6097,118.56298 -4.54353,2.03023 -14.12165,4.46009 -21.28471,5.39968 -14.652674,1.92202 -14.671181,1.92192 -34.731939,-0.20448 z"
     id="path3396"
     inkscape:connector-curvature="0"
     inkscape:export-xdpi="90"
     inkscape:export-ydpi="90"
     inkscape:export-filename="C:\Users\Derek\Documents\Visual Studio 2015\Projects\png2ico\x64\Debug\path3394.png" />
  <path
     style="fill:none;fill-opacity:1;stroke:none;stroke-width:1;stroke-miterlimit:4;stroke-dasharray:none"
     d="m 329.66477,382.77135 c -27.82439,-9.98675 -49.54777,-31.63802 -68.45705,-53.77662 -19.15123,-23.14059 -35.6864,-48.49145 -49.67594,-75.11797 -4.71715,-9.69284 8.50458,-13.61949 15.30577,-15.54413 25.14814,-8.02725 51.83443,-11.5399 78.10311,-8.28079 21.83649,2.04271 43.34749,12.06484 56.78201,29.97388 13.55867,18.01818 23.2038,39.10879 28.50586,61.08508 4.11371,17.73802 3.78993,39.44234 -10.36306,52.72256 -11.38072,11.05696 -28.46644,11.60684 -43.28823,10.40878 -2.33756,-0.29808 -4.67022,-0.72625 -6.91247,-1.47079 z"
     id="path3398"
     inkscape:connector-curvature="0"
     inkscape:export-xdpi="90"
     inkscape:export-ydpi="90"
     inkscape:export-filename="C:\Users\Derek\Documents\Visual Studio 2015\Projects\png2ico\x64\Debug\path3394.png" />
  <path
     style="fill:none;fill-opacity:1;stroke:none;stroke-opacity:1"
     d="M 68.395569,372.55022 C 49.045493,368.95098 28.797182,362.88228 14.439005,348.57961 3.272234,336.93318 4.152749,318.29582 10.05302,304.29951 20.278232,284.02122 40.919927,271.73112 61.066901,263.3242 c 28.937794,-11.56223 60.391149,-13.69419 91.086879,-16.29897 14.4017,-0.71107 28.84422,-2.0387 43.25938,-1.58075 9.61178,2.36715 2.15589,14.21768 1.42923,20.78278 -8.02386,32.09467 -21.40952,64.13244 -45.28258,87.5263 -10.45965,10.68285 -24.60386,16.70303 -39.1898,18.72751 -14.523449,2.32145 -29.450928,2.46634 -43.974441,0.0692 z"
     id="path3400"
     inkscape:connector-curvature="0"
     inkscape:export-xdpi="90"
     inkscape:export-ydpi="90"
     inkscape:export-filename="C:\Users\Derek\Documents\Visual Studio 2015\Projects\png2ico\x64\Debug\path3394.png" />
  <ellipse
     style="fill:none;fill-opacity:1;stroke:#0069cd;stroke-width:10.00000003;stroke-miterlimit:4;stroke-dasharray:none;stroke-opacity:1"
     id="path4213"
     cx="123.94559"
     cy="-415.81097"
     rx="28.308052"
     ry="91.819702"
     transform="matrix(-0.5,0.8660254,-0.8660254,-0.5,0,0)"
     inkscape:export-filename="C:\Users\Derek\Documents\Visual Studio 2015\Projects\png2ico\x64\Debug\path3394.png"
     inkscape:export-xdpi="90"
     inkscape:export-ydpi="90" />
  <ellipse
     style="fill:none;fill-opacity:1;stroke:#0069cd;stroke-width:10;stroke-miterlimit:4;stroke-dasharray:none;stroke-opacity:1"
     id="path4213-3"
     cx="193.99449"
     cy="112.01609"
     rx="28.308052"
     ry="91.819702"
     inkscape:export-filename="C:\Users\Derek\Documents\Visual Studio 2015\Projects\png2ico\x64\Debug\path3394.png"
     inkscape:export-xdpi="90"
     inkscape:export-ydpi="90" />
  <ellipse
     style="fill:none;fill-opacity:1;stroke:#0069cd;stroke-width:10.00000003;stroke-miterlimit:4;stroke-dasharray:none;stroke-opacity:1"
     id="path4213-7"
     cx="321.90131"
     cy="-74.377655"
     rx="28.308052"
     ry="91.819702"
     transform="matrix(0.5,0.8660254,0.8660254,-0.5,0,0)"
     inkscape:export-filename="C:\Users\Derek\Documents\Visual Studio 2015\Projects\png2ico\x64\Debug\path3394.png"
     inkscape:export-xdpi="90"
     inkscape:export-ydpi="90" />
  <circle
     style="fill:none;fill-opacity:1;stroke:#0069cd;stroke-width:10;stroke-miterlimit:4;stroke-dasharray:none;stroke-opacity:1"
     id="path4245"
     cx="197.2608"
     cy="239.04724"
     r="20.686653"
     inkscape:export-filename="C:\Users\Derek\Documents\Visual Studio 2015\Projects\png2ico\x64\Debug\path3394.png"
     inkscape:export-xdpi="90"
     inkscape:export-ydpi="90" />
</svg>
